<svg display="none">
    <symbol id="account" viewBox="0 0 22 22" xmlns="http://www.w3.org/2000/svg">
        <g>
            <path d="M11 0C12.4587 0 13.8576 0.579462 14.8891 1.61091C15.9205 2.64236 16.5 4.04131 16.5 5.5C16.5 6.95869 15.9205 8.35764 14.8891 9.38909C13.8576 10.4205 12.4587 11 11 11C9.54131 11 8.14236 10.4205 7.11091 9.38909C6.07946 8.35764 5.5 6.95869 5.5 5.5C5.5 4.04131 6.07946 2.64236 7.11091 1.61091C8.14236 0.579462 9.54131 0 11 0ZM11 2.75C10.2707 2.75 9.57118 3.03973 9.05546 3.55546C8.53973 4.07118 8.25 4.77065 8.25 5.5C8.25 6.22935 8.53973 6.92882 9.05546 7.44454C9.57118 7.96027 10.2707 8.25 11 8.25C11.7293 8.25 12.4288 7.96027 12.9445 7.44454C13.4603 6.92882 13.75 6.22935 13.75 5.5C13.75 4.77065 13.4603 4.07118 12.9445 3.55546C12.4288 3.03973 11.7293 2.75 11 2.75ZM11 12.375C14.6713 12.375 22 14.2037 22 17.875V22H0V17.875C0 14.2037 7.32875 12.375 11 12.375ZM11 14.9875C6.91625 14.9875 2.6125 16.995 2.6125 17.875V19.3875H19.3875V17.875C19.3875 16.995 15.0837 14.9875 11 14.9875Z"/>
        </g>
    </symbol>
    <symbol id="log-in" viewBox="0 0 25 23" xmlns="http://www.w3.org/2000/svg">
        <g>
            <path d="M11.25 5L9.5 6.75L12.75 10H0V12.5H12.75L9.5 15.75L11.25 17.5L17.5 11.25L11.25 5ZM22.5 20H12.5V22.5H22.5C23.875 22.5 25 21.375 25 20V2.5C25 1.125 23.875 0 22.5 0H12.5V2.5H22.5V20Z"/>
        </g>
    </symbol>
    <symbol id="search" viewBox="0 0 22 22" xmlns="http://www.w3.org/2000/svg">
        <g>
            <path d="M17.7768 15.1338C20.7678 10.6803 19.5838 4.647 15.1299 1.65273C10.6761 -1.34154 4.64236 -0.154156 1.65133 4.29939C-1.3397 8.75294 -0.155681 14.7862 4.29817 17.7805C7.57489 19.9797 11.8566 19.9797 15.1334 17.7805L18.8059 21.4528C19.5356 22.1824 20.723 22.1824 21.4527 21.4528C22.1824 20.7231 22.1824 19.5357 21.4527 18.8061L17.7768 15.1338ZM9.72265 17.1851C5.60266 17.1851 2.26055 13.8466 2.26055 9.72349C2.26055 5.60379 5.59922 2.26191 9.72265 2.26191C13.8426 2.26191 17.1847 5.60035 17.1847 9.72349C17.1779 13.8432 13.8426 17.1782 9.72265 17.1851Z"/>
        </g>
    </symbol>
    <symbol id="about-1" viewBox="0 0 27 41" xmlns="http://www.w3.org/2000/svg">
        <g>
            <path d="M13.5469 11.4096C16.6183 11.4096 19.1081 8.85371 19.1081 5.70088C19.1081 2.54805 16.6183 -0.00782013 13.5469 -0.00782013C10.4755 -0.00782013 7.98569 2.54805 7.98569 5.70088C7.98569 8.85371 10.4755 11.4096 13.5469 11.4096Z"/>
            <path d="M22.551 15.9765C22.9572 15.5596 23.3571 15.2517 23.6633 14.8348C23.4633 13.8983 24.0694 12.8656 24.9755 12.6539C25.1754 12.6539 25.2816 12.5513 25.3816 12.3396C25.8878 11.4032 26.2939 10.4731 26.4939 9.43398C26.4939 9.22872 26.4939 9.01705 26.3939 8.91442C26.1939 8.60013 26.0877 8.18961 26.0877 7.87531C26.0877 7.35576 26.2877 6.8362 26.6938 6.41927C26.8938 6.10497 27 5.89972 27 5.69446C27 4.65535 26.9 3.61624 26.6938 2.68617C26.6938 2.48091 26.4939 2.37187 26.2877 2.26924C25.6816 1.95494 25.2754 1.33276 25.2754 0.607947C25.2754 0.293648 25.3754 0.0883923 25.4754 -0.219493C25.5753 -0.424749 25.5753 -0.636421 25.4754 -0.841677C25.0692 -1.66912 24.4631 -2.50297 23.857 -3.22778C23.757 -3.43304 23.5508 -3.43304 23.3508 -3.43304C23.2946 -3.42663 23.2384 -3.42663 23.1759 -3.42663C22.2261 -3.42663 21.3263 -4.222 21.3263 -5.19696C21.3263 -5.40222 21.2263 -5.61389 21.0201 -5.71652C20.2141 -6.23608 19.4018 -6.653 18.5957 -7.06352C18.5145 -7.10842 18.427 -7.13407 18.3458 -7.13407C18.227 -7.13407 18.1083 -7.08276 17.9896 -6.96089C17.6647 -6.7428 17.3085 -6.63376 16.9523 -6.63376C16.3087 -6.63376 15.6839 -6.98013 15.3589 -7.58307C15.259 -7.78833 15.0528 -7.89737 14.8528 -7.89737C14.4592 -7.89737 13.953 -8 13.4469 -8C12.9408 -8 12.5346 -8 12.0285 -7.89737C11.8285 -7.89737 11.6223 -7.79474 11.5223 -7.58307C11.2162 -6.96089 10.61 -6.54396 9.90396 -6.54396C9.4978 -6.54396 9.19787 -6.64659 8.89169 -6.85826C8.69174 -6.96089 8.48554 -6.96089 8.28558 -6.96089C7.37329 -6.64659 6.56723 -6.13345 5.86114 -5.61389C5.66119 -5.51126 5.56121 -5.29959 5.56121 -5.09434C5.56121 -4.05523 4.75515 -3.22778 3.84286 -3.22778C3.74288 -3.22778 3.74288 -3.22778 3.64291 -3.22778C3.44295 -3.22778 3.23675 -3.12516 3.13677 -3.02253C2.53066 -2.29772 2.02453 -1.46386 1.5184 -0.636421C1.41842 -0.431164 1.41842 -0.219493 1.5184 -0.0142365C1.61838 0.19102 1.71835 0.505319 1.71835 0.813204C1.71835 1.53802 1.3122 2.1602 0.706087 2.4745C0.506133 2.57713 0.399907 2.67976 0.299931 2.89143C0.0999769 3.83432 0 4.87344 0 5.8035V5.90613C0 6.11139 0.0999769 6.22043 0.199954 6.42569C0.60611 6.73999 0.806063 7.36217 0.806063 7.88173C0.806063 8.29866 0.706087 8.60654 0.499884 8.92084C0.399907 9.1261 0.299931 9.33777 0.399907 9.4404C0.706087 10.4795 1.00602 11.4096 1.51215 12.3461C1.61213 12.5513 1.7121 12.6604 1.91831 12.6604C2.72437 12.8656 3.2305 13.5968 3.2305 14.4243C3.2305 14.5269 3.2305 14.5269 3.2305 14.5269C3.2305 14.7322 3.2305 14.9438 3.43046 15.0465C3.83661 15.4634 4.23652 15.8739 4.64268 16.1882L1.5184 29.6774C1.41842 30.197 1.61838 30.8191 2.12451 31.0244C2.29322 31.095 2.47443 31.127 2.64939 31.127C2.99931 31.127 3.33673 30.9859 3.54293 30.7101L7.38579 25.9379L8.69799 31.9609C8.79796 32.4804 9.3041 32.8974 9.81023 32.8974C10.3164 32.8974 10.8225 32.4804 10.9225 31.9609L13.853 20.6461L17.6959 32.1661C17.8959 32.6857 18.302 32.9936 18.8081 32.9936H18.9081C19.4143 32.891 19.9204 32.474 19.9204 31.9545L20.6265 25.8288L24.8755 30.1906C25.1192 30.4407 25.4379 30.5818 25.7628 30.5818C25.9752 30.5818 26.1877 30.5241 26.3876 30.4022C26.8938 30.0879 27.0937 29.4657 26.8938 28.9462L22.551 15.9765ZM9.97269 23.1477L9.03541 18.8565L6.51724 21.9867L7.69197 16.9323L7.87943 16.1112C8.97292 16.7398 10.1789 17.1952 11.4536 17.4326L9.97269 23.1477ZM18.2833 18.895L17.8396 22.7115L16.8086 19.6134L16.0525 17.3556C17.196 17.099 18.2833 16.6629 19.2768 16.0792L19.5955 17.0221L21.2388 21.9354L18.2833 18.895ZM13.5469 14.4179C8.79172 14.4179 5.05508 10.4731 5.05508 5.70088C5.05508 0.819619 8.89794 -3.01611 13.5469 -3.01611C18.302 -3.01611 22.0387 0.928661 22.0387 5.70088C22.0387 10.4731 18.302 14.4179 13.5469 14.4179Z"/>
        </g>
    </symbol>
    <symbol id="about-2" viewBox="0 0 53 33" xmlns="http://www.w3.org/2000/svg">
        <g>
            <path d="M26.5036 24.0622L25.6878 23.727L12.0136 18.0851V25.6682C12.0136 29.7181 18.4969 33.007 26.5036 33.007C34.5031 33.007 40.9936 29.7181 40.9936 25.6682V18.0781L27.3194 23.7201L26.5036 24.0622Z"/>
            <path d="M51.1517 23.8248V11.7029L53 10.9418L26.5036 0L0 10.9418L26.5036 21.8836L49.0869 12.5548V23.8178C48.8198 23.9994 48.6537 24.2507 48.6537 24.53V26.981C48.6537 27.5396 49.3107 27.9865 50.1193 27.9865C50.9279 27.9865 51.5849 27.5326 51.5849 26.981V24.53C51.5849 24.2577 51.4189 24.0063 51.1517 23.8248Z"/>
        </g>
    </symbol>
    <symbol id="about-3" viewBox="0 0 40 40" xmlns="http://www.w3.org/2000/svg">
        <g>
            <path fill-rule="evenodd" clip-rule="evenodd" d="M19.4558 40V29.1215C16.5533 29.1941 13.7506 29.8933 11.2109 31.1373C12.517 34.7787 15.2562 39.6005 19.4558 40Z"/>
            <path fill-rule="evenodd" clip-rule="evenodd" d="M10.8662 30.1022C13.5238 28.8218 16.4354 28.1135 19.4558 28.0318V20.5403H9.41497C9.46032 23.9546 9.95918 27.2236 10.8662 30.1022Z"/>
            <path fill-rule="evenodd" clip-rule="evenodd" d="M15.5102 0.481271C11.9909 1.28944 8.82539 3.03292 6.27664 5.43927C7.49206 6.58343 8.81632 7.56413 10.2404 8.35414C11.3016 5.45744 13.0068 2.34279 15.5102 0.481271Z"/>
            <path fill-rule="evenodd" clip-rule="evenodd" d="M29.7506 8.35414C31.1746 7.55505 32.4989 6.58343 33.7143 5.43927C31.1746 3.03292 28.0091 1.28944 24.4898 0.481271C26.9841 2.35187 28.6984 5.45744 29.7506 8.35414Z"/>
            <path fill-rule="evenodd" clip-rule="evenodd" d="M9.41497 19.4597H19.4558V11.9682C16.4354 11.8956 13.5238 11.1782 10.8662 9.89784C9.95918 12.7855 9.46032 16.0454 9.41497 19.4597Z"/>
            <path fill-rule="evenodd" clip-rule="evenodd" d="M9.88662 9.39841C8.31746 8.53576 6.84807 7.46425 5.51474 6.20204C2.21315 9.67083 0.136054 14.3292 0 19.4597H8.3356C8.38095 15.8729 8.9161 12.4313 9.88662 9.39841Z"/>
            <path fill-rule="evenodd" clip-rule="evenodd" d="M10.2404 31.6459C8.81632 32.4449 7.49206 33.4166 6.27664 34.5607C8.81632 36.958 11.9819 38.7015 15.5011 39.5187C13.0068 37.6572 11.3016 34.5516 10.2404 31.6459Z"/>
            <path fill-rule="evenodd" clip-rule="evenodd" d="M8.3356 20.5403H0C0.136054 25.6708 2.21315 30.3292 5.51474 33.798C6.84807 32.5358 8.31746 31.4642 9.89569 30.6016C8.9161 27.5778 8.38095 24.1362 8.3356 20.5403Z"/>
            <path fill-rule="evenodd" clip-rule="evenodd" d="M11.2109 8.86266C13.7506 10.1067 16.5533 10.8059 19.4558 10.8785V0C15.2562 0.408627 12.5079 5.23042 11.2109 8.86266Z"/>
            <path fill-rule="evenodd" clip-rule="evenodd" d="M30.1043 30.6016C31.6735 31.4642 33.1519 32.5358 34.4853 33.798C37.7869 30.3201 39.8639 25.6708 40 20.5403H31.6644C31.6191 24.1362 31.0748 27.5778 30.1043 30.6016Z"/>
            <path fill-rule="evenodd" clip-rule="evenodd" d="M31.6644 19.4597H40C39.8639 14.3292 37.7869 9.67083 34.4853 6.20204C33.1519 7.46425 31.6825 8.53576 30.1043 9.39841C31.0748 12.4313 31.6191 15.8729 31.6644 19.4597Z"/>
            <path fill-rule="evenodd" clip-rule="evenodd" d="M24.4898 39.5187C28.0091 38.7106 31.1746 36.9671 33.7143 34.5607C32.4989 33.4166 31.1746 32.4359 29.7506 31.6459C28.6984 34.5516 26.9841 37.6572 24.4898 39.5187Z"/>
            <path fill-rule="evenodd" clip-rule="evenodd" d="M28.7891 31.1373C26.2404 29.8933 23.4467 29.1941 20.5442 29.1215V40C24.7438 39.6005 27.483 34.7787 28.7891 31.1373Z"/>
            <path fill-rule="evenodd" clip-rule="evenodd" d="M20.5351 0V10.8785C23.4376 10.8059 26.2404 10.1067 28.78 8.86266C27.483 5.23042 24.7438 0.408627 20.5351 0Z"/>
            <path fill-rule="evenodd" clip-rule="evenodd" d="M29.1338 9.89784C26.4762 11.1782 23.5646 11.8865 20.5442 11.9591V19.4506H30.585C30.5306 16.0454 30.0317 12.7855 29.1338 9.89784Z"/>
            <path fill-rule="evenodd" clip-rule="evenodd" d="M30.585 20.5403H20.5351V28.0318C23.5556 28.1044 26.4671 28.8218 29.1247 30.1022C30.0317 27.2236 30.5306 23.9546 30.585 20.5403Z"/>
        </g>
    </symbol>
    <symbol id="phone" viewBox="0 0 18 16" xmlns="http://www.w3.org/2000/svg">
        <g>
            <path d="M11.6597 11.3665L13.1656 9.98875C13.3684 9.80549 13.625 9.68004 13.9043 9.62763C14.1835 9.57522 14.4734 9.59811 14.7387 9.69352L16.5741 10.3639C16.8422 10.4635 17.0721 10.6335 17.2348 10.8524C17.3975 11.0713 17.4857 11.3294 17.4884 11.5941V14.6694C17.4868 14.8495 17.4454 15.0274 17.3667 15.1925C17.288 15.3576 17.1736 15.5064 17.0304 15.6299C16.8872 15.7535 16.7182 15.8492 16.5334 15.9114C16.3487 15.9736 16.1521 16.001 15.9556 15.9918C3.09474 15.2599 0.499721 5.29577 0.00895314 1.48234C-0.0138287 1.29508 0.00698646 1.10552 0.0700291 0.926141C0.133072 0.746763 0.236913 0.58163 0.374722 0.441606C0.51253 0.301581 0.681183 0.189839 0.869584 0.113729C1.05799 0.0376199 1.26187 -0.00113121 1.46781 2.51373e-05H4.71495C5.00471 0.000809835 5.28759 0.0808867 5.5272 0.229956C5.76682 0.379026 5.9522 0.59027 6.05952 0.83652L6.79231 2.51566C6.90005 2.75742 6.92754 3.02287 6.87134 3.27885C6.81514 3.53482 6.67776 3.76997 6.47634 3.95492L4.97042 5.33268C4.97042 5.33268 5.83767 10.7022 11.6597 11.3665Z"/>
        </g>
    </symbol>
    <symbol id="arrow-top" viewBox="0 0 16 10" xmlns="http://www.w3.org/2000/svg">
        <g>
            <path d="M13.7143 9.57141L8 3.85713L2.28571 9.57141L0 8.42855L8 0.428555L16 8.42855L13.7143 9.57141Z" />
        </g>
    </symbol>
</svg>
