<svg display="none">
    <symbol id="facebook" viewBox="0 0 20 20" xmlns="http://www.w3.org/2000/svg">
        <g>
            <path d="M20 10.0612C20 4.50444 15.5231 0 10.0012 0C4.47694 0.00124984 0 4.50444 0 10.0625C0 15.0831 3.65704 19.2451 8.43645 20V12.9696H5.89926V10.0625H8.43894V7.84402C8.43894 5.32308 9.93251 3.93076 12.216 3.93076C13.3108 3.93076 14.4544 4.12698 14.4544 4.12698V6.60167H13.1933C11.9523 6.60167 11.5648 7.37783 11.5648 8.17398V10.0612H14.337L13.8945 12.9684H11.5636V19.9987C16.343 19.2438 20 15.0819 20 10.0612Z"/>
        </g>
    </symbol>
    <symbol id="instagram" viewBox="0 0 20 20" xmlns="http://www.w3.org/2000/svg">
        <g>
            <path d="M19.9356 5.90309C19.9244 5.06334 19.7669 4.23193 19.4702 3.44606C19.213 2.78318 18.82 2.18117 18.3165 1.67849C17.813 1.17581 17.21 0.783514 16.546 0.526666C15.7689 0.235455 14.948 0.0779923 14.1182 0.0609825C13.0498 0.0133053 12.711 0 9.99889 0C7.28676 0 6.93914 7.43489e-08 5.8785 0.0609825C5.04904 0.0781174 4.22851 0.235578 3.4518 0.526666C2.78771 0.783335 2.18461 1.17557 1.68107 1.67827C1.17753 2.18097 0.784639 2.78308 0.527543 3.44606C0.235263 4.22124 0.07788 5.04059 0.0621946 5.86872C0.014438 6.93647 0 7.27464 0 9.98226C0 12.6899 -8.27475e-09 13.0358 0.0621946 14.0958C0.0788538 14.9252 0.235451 15.7434 0.527543 16.5207C0.785071 17.1835 1.17825 17.7853 1.68196 18.2878C2.18567 18.7903 2.78883 19.1824 3.45291 19.439C4.22749 19.7419 5.04817 19.9106 5.87961 19.9379C6.94913 19.9856 7.28787 20 10 20C12.7121 20 13.0598 20 14.1204 19.9379C14.9502 19.9216 15.7712 19.7645 16.5482 19.4733C17.212 19.2162 17.8149 18.8238 18.3183 18.3211C18.8218 17.8185 19.2149 17.2166 19.4725 16.5539C19.7646 15.7778 19.9211 14.9595 19.9378 14.1291C19.9856 13.0624 20 12.7242 20 10.0155C19.9978 7.30791 19.9978 6.96419 19.9356 5.90309ZM9.99223 15.1026C7.15571 15.1026 4.85784 12.8085 4.85784 9.97672C4.85784 7.14492 7.15571 4.85087 9.99223 4.85087C11.354 4.85087 12.6599 5.39091 13.6228 6.3522C14.5857 7.31348 15.1266 8.61726 15.1266 9.97672C15.1266 11.3362 14.5857 12.64 13.6228 13.6012C12.6599 14.5625 11.354 15.1026 9.99223 15.1026ZM15.331 5.85653C14.6679 5.85653 14.1337 5.3221 14.1337 4.66127C14.1337 4.50438 14.1647 4.34903 14.2248 4.20408C14.285 4.05913 14.3731 3.92743 14.4842 3.81649C14.5953 3.70555 14.7273 3.61755 14.8725 3.55751C15.0176 3.49747 15.1733 3.46657 15.3304 3.46657C15.4876 3.46657 15.6432 3.49747 15.7884 3.55751C15.9336 3.61755 16.0655 3.70555 16.1766 3.81649C16.2877 3.92743 16.3759 4.05913 16.436 4.20408C16.4961 4.34903 16.5271 4.50438 16.5271 4.66127C16.5271 5.3221 15.9918 5.85653 15.331 5.85653Z"/>
            <path d="M9.99223 13.3064C11.8342 13.3064 13.3274 11.8156 13.3274 9.97672C13.3274 8.13781 11.8342 6.64708 9.99223 6.64708C8.15026 6.64708 6.65704 8.13781 6.65704 9.97672C6.65704 11.8156 8.15026 13.3064 9.99223 13.3064Z"/>
        </g>
    </symbol>
    <symbol id="twitter" viewBox="0 0 21 19" xmlns="http://www.w3.org/2000/svg">
        <g>
            <path d="M18.8558 4.73532L18.869 5.35201C18.869 11.6878 14.5344 19 6.60415 19C4.16965 19 1.90669 18.2071 0 16.8342C0.329877 16.8856 0.67295 16.9077 1.02262 16.9077C3.04147 16.9077 4.90198 16.1368 6.37323 14.852C4.48633 14.8153 2.90292 13.4277 2.34873 11.5263C2.61263 11.585 2.88313 11.6144 3.16023 11.6144C3.55608 11.6144 3.93874 11.5556 4.295 11.4455C2.32894 11.005 0.844486 9.06685 0.844486 6.74691V6.68084C1.41847 7.04057 2.08483 7.25348 2.79076 7.2755C1.63619 6.42388 0.877474 4.94088 0.877474 3.28903C0.877474 2.40804 1.0886 1.57844 1.46466 0.873648C3.57587 3.77357 6.76249 5.67504 10.3384 5.8806C10.2592 5.53555 10.2328 5.16847 10.2328 4.78671C10.2328 2.15108 12.1527 0 14.5344 0C15.7747 0 16.8963 0.587326 17.6814 1.51236C18.6579 1.29946 19.5815 0.910356 20.4194 0.359737C20.1027 1.483 19.4166 2.41538 18.5193 3.01005C19.3968 2.89258 20.2281 2.62828 21 2.24652C20.426 3.20827 19.6871 4.05255 18.8558 4.73532Z"/>
        </g>
    </symbol>
    <symbol id="vk" viewBox="0 0 28 17" xmlns="http://www.w3.org/2000/svg">
        <g>
        <path d="M13.7415 16.8931H15.4392C15.4392 16.8931 15.9485 16.8033 16.2031 16.5337C16.4578 16.2641 16.4577 15.725 16.4577 15.725C16.4577 15.725 16.4578 13.3887 17.4763 13.0293C18.4949 12.6698 19.853 15.3656 21.2112 16.354C22.2298 17.1627 22.9937 16.983 22.9937 16.983L26.7285 16.8931C26.7285 16.8931 28.6808 16.8033 27.7471 15.096C27.6622 15.0061 27.2378 13.9278 24.946 11.6814C22.5693 9.34514 22.9088 9.79442 25.7099 5.75085C27.4076 3.32471 28.0866 1.887 27.9169 1.16814C27.7471 0.539142 26.4739 0.718856 26.4739 0.718856H22.2297C22.2297 0.718856 21.8902 0.628999 21.7205 0.808713C21.4658 0.988427 21.3809 1.258 21.3809 1.258C21.3809 1.258 20.7019 3.145 19.853 4.76242C17.9856 8.08714 17.2217 8.26685 16.967 8.08714C16.288 7.63785 16.4577 6.11028 16.4577 5.12185C16.4577 1.887 16.967 0.539141 15.524 0.179713C15.0996 0.089856 14.7601 0 13.5717 0C12.0439 0 10.7706 -3.48133e-07 10.0916 0.359428C9.58228 0.628999 9.24275 1.16814 9.4974 1.16814C9.75204 1.16814 10.4311 1.34786 10.7706 1.79714C11.1102 2.60585 11.1102 3.95371 11.1102 3.95371C11.1102 3.95371 11.3648 7.81756 10.516 8.26685C9.92181 8.62628 9.15787 7.90742 7.46022 4.85228C6.61139 3.32471 5.93233 1.52757 5.93233 1.52757C5.93233 1.52757 5.84745 1.16814 5.59281 0.988428C5.33816 0.808714 4.91375 0.718856 4.91375 0.718856H0.924275C0.924275 0.718856 0.330098 0.718857 0.075451 0.988428C-0.0943138 1.258 0.075451 1.70728 0.075451 1.70728C0.075451 1.70728 3.2161 9.43499 6.78116 13.3887C10.0916 17.1627 13.7415 16.8931 13.7415 16.8931Z"/>
        </g>
    </symbol>
    <symbol id="youtube" viewBox="0 0 26 20" xmlns="http://www.w3.org/2000/svg">
        <g>
            <path d="M12.987 0C0.223377 0 0 1.13506 0 10C0 18.8649 0.223377 20 12.987 20C25.7506 20 25.974 18.8649 25.974 10C25.974 1.13506 25.7506 0 12.987 0ZM17.1494 10.4338L11.3182 13.1558C10.8078 13.3922 10.3896 13.1273 10.3896 12.5636V7.43636C10.3896 6.87403 10.8078 6.60779 11.3182 6.84416L17.1494 9.56623C17.6597 9.80519 17.6597 10.1948 17.1494 10.4338Z"/>
        </g>
    </symbol>
</svg>