<svg width="109" height="71" viewBox="0 0 109 71" fill="none" xmlns="http://www.w3.org/2000/svg">
<path d="M60 41.5C60 36.3783 58.6439 31.3448 56.0652 26.8948C53.4865 22.4448 49.774 18.7317 45.2931 16.1208C40.8121 13.5099 35.717 12.0912 30.5093 12.0043C25.3015 11.9173 20.1604 13.1651 15.5919 15.625C11.0233 18.0848 7.18482 21.6718 4.45398 26.0332C1.72314 30.3945 0.194096 35.3798 0.0172894 40.4986C-0.159517 45.6174 1.02201 50.6932 3.44561 55.2267C5.86921 59.7602 9.45138 63.5951 13.8396 66.3541L17.8284 60.2196C14.5232 58.1416 11.8252 55.2532 9.99979 51.8387C8.17438 48.4242 7.28448 44.6011 7.41765 40.7458C7.55081 36.8904 8.70246 33.1356 10.7593 29.8507C12.8161 26.5658 15.7072 23.8641 19.1481 22.0115C22.589 20.1588 26.4612 19.2189 30.3836 19.2844C34.306 19.3499 38.1434 20.4184 41.5184 22.3849C44.8934 24.3514 47.6896 27.148 49.6318 30.4997C51.574 33.8513 52.5954 37.6424 52.5954 41.5H60Z" fill="#BB6BFF"/>
<path d="M5.64217 16.14C5.3643 19.2095 5.88305 22.3005 7.14987 25.1236C8.41668 27.9467 10.3901 30.4097 12.8855 32.2819C15.3808 34.154 18.3164 35.3742 21.4174 35.8282C24.5185 36.2821 27.6836 35.955 30.6164 34.8775C33.5492 33.7999 36.1538 32.0072 38.1863 29.667C40.2189 27.3269 41.613 24.5159 42.238 21.4973C42.8631 18.4786 42.6987 15.351 41.7602 12.4073C40.8217 9.46351 39.1399 6.79986 36.8721 4.66569L34.2782 7.33301C36.0858 9.0341 37.4264 11.1572 38.1744 13.5036C38.9224 15.85 39.0535 18.343 38.5553 20.7491C38.0571 23.1551 36.9459 25.3957 35.3258 27.261C33.7057 29.1262 31.6296 30.5552 29.2919 31.4141C26.9543 32.273 24.4315 32.5337 21.9597 32.1718C19.4879 31.81 17.148 30.8374 15.1591 29.3452C13.1701 27.8529 11.5971 25.8898 10.5874 23.6395C9.57763 21.3893 9.16415 18.9255 9.38563 16.4789L5.64217 16.14Z" fill="#FF35E1"/>
<path d="M33.2915 56.9518C36.3106 56.3321 39.1204 54.9434 41.4578 52.9157C43.7952 50.8881 45.5839 48.2879 46.6563 45.3584C47.7287 42.429 48.0498 39.2662 47.5895 36.166C47.1293 33.0659 45.9027 30.1299 44.0246 27.6328C42.1466 25.1358 39.6784 23.1593 36.8513 21.8886C34.0242 20.6178 30.9305 20.0942 27.8599 20.3669C24.7893 20.6396 21.8422 21.6996 19.2945 23.4476C16.7468 25.1957 14.6818 27.5747 13.2929 30.3619L18.2637 32.9415C19.2284 31.0056 20.6627 29.3533 22.4322 28.1392C24.2017 26.9251 26.2486 26.1889 28.3813 25.9995C30.514 25.8101 32.6627 26.1737 34.6263 27.0563C36.5899 27.939 38.3041 29.3117 39.6085 31.046C40.9129 32.7804 41.7649 34.8196 42.0845 36.9728C42.4042 39.126 42.1812 41.3227 41.4363 43.3574C40.6915 45.392 39.4492 47.198 37.8257 48.6063C36.2023 50.0146 34.2507 50.9791 32.1538 51.4096L33.2915 56.9518Z" fill="#534465"/>
<path d="M27.8707 47.3121C25.2523 49.886 22.4798 50.8848 19.0912 50.8848C12.5065 50.8848 7 46.9279 7 38.8604C7 30.7929 12.5065 26.8359 19.0912 26.8359C22.3257 26.8359 24.8287 27.7579 27.2931 30.2166L23.7505 33.943C22.4413 32.7521 20.747 32.1375 19.2067 32.1375C15.433 32.1375 12.6605 34.9035 12.6605 38.8604C12.6605 43.2015 15.6255 45.5065 19.1297 45.5065C20.9395 45.5065 22.7493 45.0071 24.097 43.6241L27.8707 47.3121Z" fill="white"/>
<path d="M35.033 18V50.1932H29.4495V18H35.033Z" fill="white"/>
<path d="M57.1359 27.489H62.5268V50.1933H57.2129L56.9433 46.8894C55.6341 49.5786 52.0915 50.8464 49.55 50.8848C42.8113 50.9616 37.8054 46.8126 37.8054 38.8219C37.8054 30.9849 43.0424 26.8743 49.6655 26.9511C52.7076 26.9511 55.6341 28.3726 56.9048 30.6391L57.1359 27.489ZM43.4659 38.8219C43.4659 43.163 46.4695 45.7369 50.2046 45.7369C59.0612 45.7369 59.0612 31.9453 50.2046 31.9453C46.4695 31.9453 43.4659 34.4808 43.4659 38.8219Z" fill="white"/>
<path d="M81.2411 33.5205C79.6238 31.9838 77.7755 31.4844 75.6191 31.4844C72.9236 31.4844 71.4604 32.3295 71.4604 33.751C71.4604 35.2108 72.8081 36.056 75.6961 36.248C80.0089 36.517 85.4384 37.4774 85.4384 43.5088C85.4384 47.5042 82.1653 50.9617 75.6576 50.9617C72.038 50.9617 68.4569 50.347 65.1453 46.8895L67.9178 42.8941C69.535 44.6997 73.2317 46.0443 75.7732 46.0827C77.891 46.1212 79.8934 45.0071 79.8934 43.3551C79.8934 41.7801 78.5842 41.127 75.3496 40.9733C71.0368 40.666 65.9154 39.0909 65.9154 33.943C65.9154 28.6799 71.3834 26.8359 75.5036 26.8359C79.0462 26.8359 81.7417 27.5274 84.3602 29.8324L81.2411 33.5205Z" fill="white"/>
<path d="M102.998 33.5205C101.38 31.9838 99.5321 31.4844 97.3757 31.4844C94.6802 31.4844 93.217 32.3295 93.217 33.751C93.217 35.2108 94.5647 36.056 97.4527 36.248C101.766 36.517 107.195 37.4774 107.195 43.5088C107.195 47.5042 103.922 50.9617 97.4142 50.9617C93.7946 50.9617 90.2134 50.347 86.9019 46.8895L89.6743 42.8941C91.2916 44.6997 94.9883 46.0443 97.5297 46.0827C99.6476 46.1212 101.65 45.0071 101.65 43.3551C101.65 41.7801 100.341 41.127 97.1062 40.9733C92.7934 40.666 87.672 39.0909 87.672 33.943C87.672 28.6799 93.14 26.8359 97.2602 26.8359C100.803 26.8359 103.498 27.5274 106.117 29.8324L102.998 33.5205Z" fill="white"/>
</svg>
